# xmcd
#
# Track frame offsets: 
#        150
#        22452
#        41363
#        63636
#        78446
#        97935
#        115540
#        135306
#        153089
#        172079
#        193638
#
# Disc length: 2708 seconds
#
# Revision: 0
# Processed by: cddbd v1.5.2PL0 Copyright (c) Steve Scherf et al.
# Submitted via: ExactAudioCopy v1.0b4
#
DISCID=870a920b
DTITLE=Paul Reddick - Ride the One
DYEAR=2016
DGENRE=Blues
TTITLE0=Shadows
TTITLE1=Celebrate
TTITLE2=Mourning Dove
TTITLE3=Gotta Find A…
TTITLE4=It Goes With You
TTITLE5=Watersmooth
TTITLE6=Diamonds
TTITLE7=Living in Another World
TTITLE8=I Tried to Tell You
TTITLE9=Love and Never Know
TTITLE10=Moon and Star
EXTD=
EXTT0=
EXTT1=
EXTT2=
EXTT3=
EXTT4=
EXTT5=
EXTT6=
EXTT7=
EXTT8=
EXTT9=
EXTT10=
PLAYORDER=
